<?xml version="1.0" encoding="UTF-8"?>
<svg version="1.1" xmlns="http://www.w3.org/2000/svg" width="32" height="32">
<path d="M0 0 C1.45599609 0.00108765 1.45599609 0.00108765 2.94140625 0.00219727 C4.00101563 0.00026367 5.060625 -0.00166992 6.15234375 -0.00366211 C7.81136719 0.03210937 7.81136719 0.03210937 9.50390625 0.06860352 C10.60992188 0.05764648 11.7159375 0.04668945 12.85546875 0.03540039 C20.95295942 0.1092826 20.95295942 0.1092826 23.31884766 2.35009766 C24.6970493 5.00286609 24.89082514 6.7141226 24.90234375 9.69360352 C24.90814453 11.13606445 24.90814453 11.13606445 24.9140625 12.60766602 C24.90246094 13.60540039 24.89085938 14.60313477 24.87890625 15.63110352 C24.89050781 16.62883789 24.90210937 17.62657227 24.9140625 18.65454102 C24.91019531 19.61618164 24.90632813 20.57782227 24.90234375 21.56860352 C24.89895996 22.44387695 24.89557617 23.31915039 24.89208984 24.22094727 C24.41043028 27.2114776 23.70454674 28.54680035 21.50390625 30.63110352 C17.55536816 31.47495677 13.53204123 31.23350928 9.50390625 31.19360352 C8.39789063 31.21745117 7.291875 31.24129883 6.15234375 31.26586914 C4.56292969 31.26296875 4.56292969 31.26296875 2.94140625 31.26000977 C1.97074219 31.26073486 1.00007812 31.26145996 0 31.26220703 C-2.49609375 30.63110352 -2.49609375 30.63110352 -4.31103516 28.38476562 C-5.48804666 25.64980213 -5.88173547 23.89272612 -5.89453125 20.94360352 C-5.89839844 20.07993164 -5.90226563 19.21625977 -5.90625 18.32641602 C-5.89464844 17.43696289 -5.88304687 16.54750977 -5.87109375 15.63110352 C-5.88269531 14.74165039 -5.89429688 13.85219727 -5.90625 12.93579102 C-5.90238281 12.07211914 -5.89851562 11.20844727 -5.89453125 10.31860352 C-5.89114746 9.5387207 -5.88776367 8.75883789 -5.88427734 7.95532227 C-5.21412487 3.94283703 -4.13347034 1.04509202 0 0 Z " fill="#FBFCFB" transform="translate(6.49609375,-0.631103515625)"/>
<path d="M0 0 C0.66 0 1.32 0 2 0 C2 0.66 2 1.32 2 2 C3.98 2 5.96 2 8 2 C8 1.34 8 0.68 8 0 C8.66 0 9.32 0 10 0 C10 0.66 10 1.32 10 2 C10.99 2 11.98 2 13 2 C13.02685095 4.47923801 13.04676547 6.9581884 13.0625 9.4375 C13.07087891 10.14455078 13.07925781 10.85160156 13.08789062 11.58007812 C13.09653588 13.38693559 13.05220011 15.19387603 13 17 C12 18 12 18 8.875 18.1328125 C7.59625 18.13023438 6.3175 18.12765625 5 18.125 C3.72125 18.12757812 2.4425 18.13015625 1.125 18.1328125 C-2 18 -2 18 -3 17 C-3.07313567 14.46950598 -3.09247527 11.96695163 -3.0625 9.4375 C-3.05798828 8.72658203 -3.05347656 8.01566406 -3.04882812 7.28320312 C-3.03700864 5.52209987 -3.01907263 3.76103964 -3 2 C-2.01 2 -1.02 2 0 2 C0 1.34 0 0.68 0 0 Z " fill="#3AB1E3" transform="translate(11,6)"/>
<path d="M0 0 C4.29 0 8.58 0 13 0 C13 3.3 13 6.6 13 10 C8.71 10 4.42 10 0 10 C0 6.7 0 3.4 0 0 Z " fill="#D1ECEF" transform="translate(10,12)"/>
<path d="M0 0 C3.96 0 7.92 0 12 0 C11.67 0.99 11.34 1.98 11 3 C9.1875 3.5625 9.1875 3.5625 7 4 C5.6520257 4.63654342 4.31403276 5.29605388 3 6 C3.66 7.32 4.32 8.64 5 10 C3.35 10 1.7 10 0 10 C0 6.7 0 3.4 0 0 Z " fill="#F5FAF7" transform="translate(10,12)"/>
<path d="M0 0 C2.74809946 4.63065577 2.13884536 8.72387638 2 14 C5.96 14 9.92 14 14 14 C14.33 14.66 14.66 15.32 15 16 C12.68756208 16.02685412 10.3750373 16.04632841 8.0625 16.0625 C6.77472656 16.07410156 5.48695312 16.08570312 4.16015625 16.09765625 C1 16 1 16 0 15 C-0.07313567 12.46950598 -0.09247527 9.96695163 -0.0625 7.4375 C-0.05798828 6.72658203 -0.05347656 6.01566406 -0.04882812 5.28320312 C-0.03700864 3.52209987 -0.01907263 1.76103964 0 0 Z " fill="#5DBEE6" transform="translate(8,8)"/>
<path d="M0 0 C0.33 0 0.66 0 1 0 C1 1.98 1 3.96 1 6 C-0.98 6 -2.96 6 -5 6 C-3.35830472 3.97945196 -1.69088222 1.97956942 0 0 Z " fill="#FDFDFC" transform="translate(21,16)"/>
<path d="M0 0 C0.66 0 1.32 0 2 0 C2 4.95 2 9.9 2 15 C1.34 14.67 0.68 14.34 0 14 C0.01160156 13.30132812 0.02320312 12.60265625 0.03515625 11.8828125 C0.04417969 10.97273438 0.05320312 10.06265625 0.0625 9.125 C0.07410156 8.22007813 0.08570312 7.31515625 0.09765625 6.3828125 C0.16249257 3.9831415 0.16249257 3.9831415 -1 2 C-0.67 1.34 -0.34 0.68 0 0 Z " fill="#26AAE0" transform="translate(22,8)"/>
<path d="M0 0 C0.66 0 1.32 0 2 0 C0.95125002 2.62187494 0.35068687 3.79371361 -2.125 5.25 C-2.74375 5.4975 -3.3625 5.745 -4 6 C-4.66 5.01 -5.32 4.02 -6 3 C-5.195625 2.690625 -4.39125 2.38125 -3.5625 2.0625 C-1.10919595 1.23664655 -1.10919595 1.23664655 0 0 Z " fill="#53C383" transform="translate(18,14)"/>
</svg>
